<?xml version="1.0" encoding="UTF-8" standalone="no"?>
<svg
   xmlns:dc="http://purl.org/dc/elements/1.1/"
   xmlns:cc="http://creativecommons.org/ns#"
   xmlns:rdf="http://www.w3.org/1999/02/22-rdf-syntax-ns#"
   xmlns:svg="http://www.w3.org/2000/svg"
   xmlns="http://www.w3.org/2000/svg"
   xmlns:sodipodi="http://sodipodi.sourceforge.net/DTD/sodipodi-0.dtd"
   xmlns:inkscape="http://www.inkscape.org/namespaces/inkscape"
   inkscape:version="1.0 (4035a4f, 2020-05-01)"
   sodipodi:docname="flask.svg"
   id="svg867"
   xml:space="preserve"
   viewBox="0 0 85.36 85.36"
   version="1.1"
   fill="#333333"
   enable-background="new 0 0 100 100"
   height="256.08"
   width="256.08"><defs
   id="defs871" /><sodipodi:namedview
   inkscape:current-layer="svg867"
   inkscape:window-maximized="0"
   inkscape:window-y="69"
   inkscape:window-x="3192"
   inkscape:cy="140.74801"
   inkscape:cx="128.03999"
   inkscape:zoom="3.1476184"
   showgrid="false"
   id="namedview869"
   inkscape:window-height="1003"
   inkscape:window-width="1615"
   inkscape:pageshadow="2"
   inkscape:pageopacity="0"
   guidetolerance="10"
   gridtolerance="10"
   objecttolerance="10"
   borderopacity="1"
   bordercolor="#666666"
   pagecolor="#ffffff" />
    <metadata
   id="metadata833">
        <rdf:RDF>
            <cc:Work
   rdf:about="">
                <dc:format>image/svg+xml</dc:format>
                <dc:type
   rdf:resource="http://purl.org/dc/dcmitype/StillImage" />
                <dc:title />
            </cc:Work>
        </rdf:RDF>
    </metadata>
    <path
   id="path835"
   d="m27.345-37.335-17.33-30.02v-10.079h0.772c2.118 0 3.842-1.724 3.842-3.842 0-2.119-1.724-3.843-3.842-3.843h-15.182c-2.119 0-3.842 1.724-3.842 3.843s1.724 3.842 3.842 3.842h0.927v9.811l-17.487 30.288c-1.362 2.36-1.362 5.291 0 7.651 1.363 2.36 3.902 3.827 6.626 3.827h35.048c2.726 0 5.265-1.467 6.625-3.827 1.365-2.359 1.365-5.292 1e-3 -7.651zm-31.74-42.656c-0.708 0-1.285-0.576-1.285-1.285s0.576-1.285 1.285-1.285h15.183c0.708 0 1.283 0.577 1.283 1.285s-0.575 1.285-1.283 1.285h-2.052c-0.706 0-1.279 0.573-1.279 1.279v11.7c0 0.225 0.06 0.445 0.172 0.639l10.577 18.324c-0.034 5e-3 -0.069 3e-3 -0.104 9e-3 -0.345 0.055-0.651 0.102-0.889 0.102-0.916 0-1.835-0.238-2.731-0.708-0.43-0.228-0.889-0.335-1.344-0.335-0.969 0-1.91 0.488-2.456 1.361-1.131 1.813-3.039 2.894-5.104 2.894-2.854 0-5.286-2.003-5.914-4.87-0.203-0.932-0.851-1.702-1.732-2.061-0.351-0.145-0.723-0.215-1.092-0.215-0.554 0-1.107 0.16-1.584 0.474-0.987 0.646-2.112 0.987-3.25 0.987-0.517 0-1.074-0.097-1.753-0.307-0.155-0.049-0.311-0.081-0.467-0.103l2.373-4.109h11.535c0.706 0 1.279-0.573 1.279-1.279s-0.573-1.279-1.279-1.279h-10.058l1.872-3.241h7.688c0.707 0 1.279-0.573 1.279-1.279s-0.572-1.279-1.279-1.279h-6.21l1.808-3.13c0.026-0.036 0.051-0.074 0.076-0.112h4.825c0.706 0 1.279-0.573 1.279-1.279s-0.573-1.279-1.279-1.279h-4.606v-3.242h4.604c0.706 0 1.279-0.573 1.279-1.279s-0.573-1.279-1.279-1.279h-4.604v-3.824c0-0.706-0.573-1.279-1.279-1.279h-2.205z" />
    <path
   id="path837"
   d="m-4.538-97.293c3.839 0 6.962-3.123 6.962-6.962s-3.124-6.962-6.962-6.962-6.962 3.123-6.962 6.962 3.124 6.962 6.962 6.962zm0-11.367c2.429 0 4.405 1.976 4.405 4.404s-1.976 4.404-4.405 4.404-4.405-1.976-4.405-4.404 1.977-4.404 4.405-4.404z" />
    <path
   id="path839"
   d="m1.003-91.752c0 2.272 1.849 4.121 4.121 4.121s4.121-1.849 4.121-4.121-1.849-4.121-4.121-4.121-4.121 1.849-4.121 4.121zm4.121-1.563c0.862 0 1.563 0.701 1.563 1.563s-0.7 1.563-1.563 1.563-1.563-0.701-1.563-1.563 0.701-1.563 1.563-1.563z" />
    <path
   id="path841"
   stroke-width=".8631"
   fill="#fc0"
   d="m24.048-38.2-5.3303-9.2335c-3.1435-7.7748-21.883-13.817-29.584-2.4987l-6.7736 11.732c-1.1756 2.0369-1.1756 4.5667 0 6.6036 1.1764 2.0369 3.3678 3.3031 5.7189 3.3031h30.25c2.3528 0 4.5442-1.2662 5.7181-3.3031 1.1781-2.0361 1.1781-4.5676 8.63e-4 -6.6036z" />
    <path
   id="path843"
   fill="#ffc107"
   d="m143.85-25.061c-0.554 0-1.107 0.16061-1.584 0.47461-0.987 0.646-2.112 0.98698-3.25 0.98698-0.517 0-1.0743-0.09729-1.7533-0.30729-0.39216 0.03998-0.72173 0.07672-1.1191 0.78581l-6.7734 11.732c-1.1756 2.0369-1.1756 4.5666 0 6.6035 1.1764 2.0369 3.3676 3.3027 5.7188 3.3027h30.25c2.3528 0 4.5443-1.2658 5.7181-3.3027 1.1781-2.0361 1.1786-4.5675 1e-3 -6.6035l-5.3307-9.2337c-0.45242-0.78245-0.70174-0.56556-1.5046-0.50452-0.916 0-1.8351-0.23768-2.7311-0.70768-0.43-0.228-0.88941-0.33529-1.3444-0.33529-0.969 0-1.9097 0.48833-2.4557 1.3613-1.131 1.813-3.0392 2.8939-5.1042 2.8939-2.854 0-5.2861-2.0034-5.9141-4.8704-0.203-0.932-0.85077-1.7015-1.7318-2.0605-0.351-0.145-0.7228-0.21549-1.0918-0.21549z" />
    <path
   id="path845"
   fill="#ffc107"
   d="m94.563-31.292-17.33-30.02v-10.079h0.772c2.118 0 3.842-1.724 3.842-3.842 0-2.119-1.724-3.843-3.842-3.843h-15.182c-2.119 0-3.842 1.724-3.842 3.843s1.724 3.842 3.842 3.842h0.927v9.811l-17.487 30.288c-1.362 2.36-1.362 5.291 0 7.651 1.363 2.36 3.902 3.827 6.626 3.827h35.048c2.726 0 5.265-1.467 6.625-3.827 1.365-2.359 1.365-5.292 1e-3 -7.651zm-31.74-42.656c-0.708 0-1.285-0.576-1.285-1.285s0.576-1.285 1.285-1.285h15.183c0.708 0 1.283 0.577 1.283 1.285s-0.575 1.285-1.283 1.285h-2.052c-0.706 0-1.279 0.573-1.279 1.279v11.7c0 0.225 0.06 0.445 0.172 0.639l10.577 18.324c-0.034 5e-3 -0.069 3e-3 -0.104 9e-3 -0.345 0.055-0.651 0.102-0.889 0.102-0.916 0-1.835-0.238-2.731-0.708-0.43-0.228-0.889-0.335-1.344-0.335-0.969 0-1.91 0.488-2.456 1.361-1.131 1.813-3.039 2.894-5.104 2.894-2.854 0-5.286-2.003-5.914-4.87-0.203-0.932-0.851-1.702-1.732-2.061-0.351-0.145-0.723-0.215-1.092-0.215-0.554 0-1.107 0.16-1.584 0.474-0.987 0.646-2.112 0.987-3.25 0.987-0.517 0-1.074-0.097-1.753-0.307-0.155-0.049-0.311-0.081-0.467-0.103l2.373-4.109h11.535c0.706 0 1.279-0.573 1.279-1.279s-0.573-1.279-1.279-1.279h-10.058l1.872-3.241h7.688c0.707 0 1.279-0.573 1.279-1.279s-0.572-1.279-1.279-1.279h-6.21l1.808-3.13c0.026-0.036 0.051-0.074 0.076-0.112h4.825c0.706 0 1.279-0.573 1.279-1.279s-0.573-1.279-1.279-1.279h-4.606v-3.242h4.604c0.706 0 1.279-0.573 1.279-1.279s-0.573-1.279-1.279-1.279h-4.604v-3.824c0-0.706-0.573-1.279-1.279-1.279h-2.205z" />
    <path
   id="path847"
   d="m62.68-91.25c3.839 0 6.962-3.123 6.962-6.962 0-3.839-3.124-6.962-6.962-6.962s-6.962 3.123-6.962 6.962c0 3.839 3.124 6.962 6.962 6.962zm0-11.367c2.429 0 4.405 1.976 4.405 4.404 0 2.428-1.976 4.404-4.405 4.404s-4.405-1.976-4.405-4.404c0-2.428 1.977-4.404 4.405-4.404z" />
    <path
   id="path849"
   d="m68.221-85.709c0 2.272 1.849 4.121 4.121 4.121 2.272 0 4.121-1.849 4.121-4.121s-1.849-4.121-4.121-4.121c-2.272 0-4.121 1.849-4.121 4.121zm4.121-1.563c0.862 0 1.563 0.701 1.563 1.563s-0.7 1.563-1.563 1.563-1.563-0.701-1.563-1.563 0.701-1.563 1.563-1.563z" />
    <path
   id="path851"
   d="m62.824-79.076c-2.119 0-3.8424 1.7241-3.8424 3.8431s1.7244 3.8418 3.8424 3.8418h0.92709v9.8112l-17.488 30.288c-1.362 2.36-1.362 5.291 0 7.651 1.363 2.36 3.9023 3.8268 6.6263 3.8268h35.048c2.726 0 5.265-1.4668 6.625-3.8268 1.365-2.359 1.3647-5.292 6.7e-4 -7.651l-17.33-30.02v-10.079h0.77213c2.118 0 3.8418-1.7238 3.8418-3.8418 0-2.119-1.7238-3.8431-3.8418-3.8431zm0 2.5579h15.183c0.708 0 1.2826 0.57716 1.2826 1.2852s-0.57455 1.2852-1.2826 1.2852h-2.0521c-0.706 0-1.2793 0.57265-1.2793 1.2786v11.7c0 0.225 0.0599 0.44533 0.17188 0.63933 5.4876 9.5256 10.979 18.748 16.42 28.173 1.1773 2.0361 1.1768 4.5675-1e-3 6.6035-1.1738 2.0369-3.3653 3.3027-5.7181 3.3027h-30.25c-2.3511 0-4.5423-1.2658-5.7188-3.3027-1.1756-2.0369-1.1756-4.5666 0-6.6035 3.1075-5.7233 6.5841-11.164 9.7988-16.73h11.534c0.706 0 1.2793-0.57265 1.2793-1.2786s-0.5733-1.2793-1.2793-1.2793h-10.058l1.8724-3.2409h7.6875c0.707 0 1.2793-0.57265 1.2793-1.2786s-0.57229-1.2793-1.2793-1.2793h-6.2096l1.8079-3.1302c0.026-0.036 0.0512-0.07398 0.0762-0.11198h4.8249c0.706 0 1.2786-0.57265 1.2786-1.2786s-0.57264-1.2793-1.2786-1.2793h-4.6061v-3.2422h4.6042c0.706 0 1.2786-0.57265 1.2786-1.2786 0-0.706-0.57265-1.2793-1.2786-1.2793h-4.6042v-3.8236c0-0.706-0.57265-1.2793-1.2786-1.2793h-2.2051v-6.33e-4c-0.708 0-1.2852-0.57616-1.2852-1.2852s0.57615-1.2852 1.2852-1.2852z" />
    <path
   id="path853"
   d="m142.31-70.382c3.839 0 6.962-3.123 6.962-6.962s-3.124-6.962-6.962-6.962-6.962 3.123-6.962 6.962 3.124 6.962 6.962 6.962zm0-11.367c2.429 0 4.405 1.976 4.405 4.404s-1.976 4.404-4.405 4.404-4.405-1.976-4.405-4.404 1.977-4.404 4.405-4.404z" />
    <path
   id="path855"
   d="m147.85-64.841c0 2.272 1.849 4.121 4.121 4.121s4.121-1.849 4.121-4.121-1.849-4.121-4.121-4.121-4.121 1.849-4.121 4.121zm4.121-1.563c0.862 0 1.563 0.701 1.563 1.563s-0.7 1.563-1.563 1.563-1.563-0.701-1.563-1.563 0.701-1.563 1.563-1.563z" />
    <path
   id="path857"
   d="m142.46-58.208c-2.119 0-3.8424 1.7241-3.8424 3.8431s1.7244 3.8418 3.8424 3.8418h0.92709v9.8112l-17.488 30.288c-1.362 2.36-1.362 5.291 0 7.651 1.363 2.36 3.9023 3.8268 6.6263 3.8268h35.048c2.726 0 5.265-1.4668 6.625-3.8268 1.365-2.359 1.3647-5.292 6.7e-4 -7.651l-17.33-30.02v-10.079h0.77213c2.118 0 3.8418-1.7238 3.8418-3.8418 0-2.119-1.7238-3.8431-3.8418-3.8431zm0 2.5579h15.183c0.708 0 1.2826 0.57716 1.2826 1.2852s-0.57455 1.2852-1.2826 1.2852h-2.0521c-0.706 0-1.2793 0.57265-1.2793 1.2786v11.7c0 0.225 0.0599 0.44533 0.17188 0.63933 5.4876 9.5256 10.979 18.748 16.42 28.173 1.1773 2.0361 1.1768 4.5675-1e-3 6.6035-1.1738 2.0369-3.3653 3.3027-5.7181 3.3027h-30.25c-2.3511 0-4.5423-1.2658-5.7188-3.3027-1.1756-2.0369-1.1756-4.5666 0-6.6035 3.1075-5.7233 6.5841-11.164 9.7988-16.73h11.534c0.706 0 1.2793-0.57265 1.2793-1.2786s-0.5733-1.2793-1.2793-1.2793h-10.058l1.8724-3.2409h7.6875c0.707 0 1.2793-0.57265 1.2793-1.2786s-0.57229-1.2793-1.2793-1.2793h-6.2096l1.8079-3.1302c0.026-0.036 0.0512-0.07398 0.0762-0.11198h4.8249c0.706 0 1.2786-0.57265 1.2786-1.2786s-0.57264-1.2793-1.2786-1.2793h-4.6061v-3.2422h4.6042c0.706 0 1.2786-0.57265 1.2786-1.2786 0-0.706-0.57265-1.2793-1.2786-1.2793h-4.6042v-3.8236c0-0.706-0.57265-1.2793-1.2786-1.2793h-2.2051v-6.33e-4c-0.708 0-1.2852-0.57616-1.2852-1.2852s0.57615-1.2852 1.2852-1.2852z" />
    <path
   sodipodi:nodetypes="asccssccsaa"
   id="path859"
   stroke-width="1.085"
   fill="#ffc107"
   d="m 37.058802,58.744 c -2.211238,-0.326623 -2.304431,1.967133 -6.515502,1.58573 -5.604733,-0.507629 -8.112707,8.708553 -10.4653,13.24817 -1.2754,2.21 -1.2754,4.9546 0,7.1646 1.2764,2.21 3.6538,3.5833 6.2046,3.5833 h 32.82 c 2.5527,0 4.9304,-1.3733 6.2039,-3.5833 1.2782,-2.2091 1.2787,-4.9555 0.001,-7.1646 C 61.09397,67.092458 60.812829,60.786799 55.987302,61.821109 52.840114,62.495681 48.904068,64.285395 45.3734,63.638435 42.209999,63.058773 40.240353,59.213948 37.058802,58.744 Z" />
    <path
   id="path861"
   stroke-width="1.0003"
   fill="#212121"
   d="m 52.101829,13.924 c 3.839,0 6.962,-3.123 6.962,-6.962 0,-3.839 -3.124,-6.962 -6.962,-6.962 -3.838,0 -6.962,3.123 -6.962,6.962 0,3.839 3.124,6.962 6.962,6.962 z m 0,-11.367 c 2.429,0 4.405,1.976 4.405,4.404 0,2.428 -1.976,4.404 -4.405,4.404 -2.429,0 -4.405,-1.976 -4.405,-4.404 0,-2.428 1.977,-4.404 4.405,-4.404 z" />
    <path
   id="path863"
   fill="#212121"
   d="m 36.145092,12.263787 c 0,2.272 1.849,4.121 4.121,4.121 2.272,0 4.121,-1.849 4.121,-4.121 0,-2.2720002 -1.849,-4.1210002 -4.121,-4.1210002 -2.272,0 -4.121,1.849 -4.121,4.1210002 z m 4.121,-1.563 c 0.862,0 1.563,0.701 1.563,1.563 0,0.862 -0.7,1.563 -1.563,1.563 -0.863,0 -1.563,-0.701 -1.563,-1.563 0,-0.862 0.701,-1.563 1.563,-1.563 z" />
    <path
   transform="scale(0.33333335)"
   d="M 170.52344 185.13477 C 169.71895 185.16191 168.86572 185.26896 167.96094 185.46289 C 166.48482 185.77928 164.93554 186.18969 163.35742 186.62891 C 167.89152 193.29507 171.23644 204.69326 178.76758 216.28516 C 182.60068 222.91246 182.59827 231.152 178.76367 237.7793 C 174.94317 244.4093 167.73492 247.45646 160.15234 248.5293 L 128.72266 252.97656 L 177.30859 252.97656 C 184.96669 252.97656 192.09942 248.85656 195.91992 242.22656 C 199.75452 235.59926 199.75497 227.36167 195.92188 220.73438 C 184.07132 202.49407 182.59072 184.72756 170.52344 185.13477 z "
   style="fill:#dea806;fill-opacity:1"
   id="path877" /><path
   sodipodi:nodetypes="cssccccssccccsscccsssssscccsscccssscccsssccssscssccscc"
   id="path865"
   fill="#212121"
   d="m 33.09,26.098 c -2.119,0 -3.8424,1.7241 -3.8424,3.8431 0,2.119 1.7244,3.8418 3.8424,3.8418 h 0.92709 v 9.8112 l -15.488,28.288 c -1.362,2.36 -1.362,5.957667 0,8.317667 1.363,2.36 3.9023,5.160133 6.6263,5.160133 h 35.048 c 2.726,0 5.265,-2.800133 6.625,-5.160133 1.365,-2.359 1.3647,-5.958667 6.7e-4,-8.317667 l -15.33,-28.02 v -10.079 h 0.77213 c 2.118,0 3.8418,-1.7238 3.8418,-3.8418 0,-2.119 -1.7238,-3.8431 -3.8418,-3.8431 z m 0,2.5579 h 19.183 c 0.708,0 1.2826,0.57716 1.2826,1.2852 0,0.70804 -0.57455,1.2852 -1.2826,1.2852 h -2.0521 c -0.706,0 -1.2793,0.57265 -1.2793,1.2786 v 11.7 c 0,0.225 0.0599,0.44533 0.17188,0.63933 5.4876,9.5256 8.979,16.748 14.42,26.173 1.1773,2.0361 1.1768,5.234167 -10e-4,7.270167 -1.1738,2.0369 -3.3653,4.636033 -5.7181,4.636033 h -30.25 c -2.3511,0 -4.5423,-2.599133 -5.7188,-4.636033 -1.1756,-2.0369 -1.1756,-5.233267 0,-7.270167 l 11.1472,-20.5288 h 7.020833 c 0.707,0 1.2793,-0.57265 1.2793,-1.2786 0,-0.70595 -0.57229,-1.2793 -1.2793,-1.2793 H 34.47068 l 1.8079,-3.1302 c 0.026,-0.036 0.0512,-0.07398 0.0762,-0.11198 h 4.158233 c 0.706,0 1.2786,-0.57265 1.2786,-1.2786 0,-0.70595 -0.57264,-1.2793 -1.2786,-1.2793 H 36.57358 v -3.2422 h 3.937533 c 0.706,0 1.2786,-0.57265 1.2786,-1.2786 0,-0.706 -0.57265,-1.2793 -1.2786,-1.2793 H 36.57358 v -3.8236 c 0,-0.706 -0.57265,-1.2793 -1.2786,-1.2793 h -2.2051 v -6.33e-4 c -0.708,0 -1.2852,-0.57616 -1.2852,-1.2852 0,-0.70904 0.57615,-1.2852 1.2852,-1.2852 z" />
<path
   d="m 45.676109,19.570901 c 0,2.272 1.849,4.121 4.121,4.121 2.272,0 4.121,-1.849 4.121,-4.121 0,-2.272 -1.849,-4.121 -4.121,-4.121 -2.272,0 -4.121,1.849 -4.121,4.121 z m 4.121,-1.563 c 0.862,0 1.563,0.701 1.563,1.563 0,0.862 -0.7,1.563 -1.563,1.563 -0.863,0 -1.563,-0.701 -1.563,-1.563 0,-0.862 0.701,-1.563 1.563,-1.563 z"
   fill="#212121"
   id="path873" /><ellipse
   ry="1.2093649"
   rx="1.209365"
   cy="23.405575"
   cx="42.891182"
   id="path875"
   style="fill:#000000;fill-opacity:1;stroke:#000000;stroke-width:0.914604;stroke-linecap:round;stroke-linejoin:round" /></svg>
